<?xml version="1.0" standalone="no"?>
<!DOCTYPE svg PUBLIC "-//W3C//DTD SVG 20010904//EN"
 "http://www.w3.org/TR/2001/REC-SVG-20010904/DTD/svg10.dtd">
<svg version="1.0" xmlns="http://www.w3.org/2000/svg"
 width="1022.000000pt" height="1010.000000pt" viewBox="0 0 1022.000000 1010.000000"
 preserveAspectRatio="xMidYMid meet">

<g transform="translate(0.000000,1010.000000) scale(0.100000,-0.100000)"
fill="#000000" stroke="none">
<path d="M200 5020 l0 -5000 5000 0 5000 0 0 5000 0 5000 -5000 0 -5000 0 0
-5000z m6678 -9 c920 -1584 1672 -2882 1672 -2885 0 -3 -1507 -6 -3350 -6
-1842 0 -3350 3 -3350 8 0 6 192 338 355 615 l69 117 2488 0 c1368 0 2488 3
2488 6 0 5 -2000 3453 -2037 3513 -15 23 -15 23 -58 -50 -23 -41 -188 -326
-366 -633 -178 -307 -335 -577 -348 -600 -115 -201 -829 -1431 -850 -1463
l-26 -42 -432 -1 c-238 0 -433 2 -433 5 0 3 77 136 171 297 94 161 183 313
197 338 61 109 570 984 622 1070 31 52 97 165 145 250 138 243 723 1248 766
1317 21 34 39 65 39 67 0 3 13 26 29 53 16 26 140 240 276 476 136 235 250
427 254 427 4 0 759 -1296 1679 -2879z m-2502 -1660 c56 -25 74 -67 74 -168 0
-134 -44 -183 -165 -183 -111 0 -155 51 -155 179 0 98 21 148 74 172 52 24
120 24 172 0z m740 0 c56 -25 74 -67 74 -168 0 -134 -44 -183 -165 -183 -111
0 -155 51 -155 179 0 98 21 148 74 172 52 24 120 24 172 0z m-2406 -36 l0 -45
-100 0 -100 0 0 -35 0 -35 80 0 80 0 0 -45 0 -45 -80 0 c-47 0 -80 -4 -80 -10
0 -6 40 -10 100 -10 l100 0 0 -45 0 -45 -150 0 -150 0 0 180 0 180 150 0 150
0 0 -45z m130 -90 l0 -135 95 0 95 0 0 -45 0 -45 -140 0 -140 0 0 180 0 180
45 0 45 0 0 -135z m357 53 l41 -83 38 83 37 82 44 0 43 0 0 -180 0 -180 -45 0
-44 0 -3 58 -4 57 -13 -32 c-11 -29 -17 -33 -52 -33 -34 0 -41 4 -58 38 l-20
37 -1 -62 0 -63 -45 0 -45 0 0 180 0 180 43 0 43 0 41 -82z m543 37 l0 -45
-100 0 -100 0 0 -35 0 -35 80 0 80 0 0 -45 0 -45 -80 0 c-47 0 -80 -4 -80 -10
0 -6 40 -10 100 -10 l100 0 0 -45 0 -45 -150 0 -150 0 0 180 0 180 150 0 150
0 0 -45z m370 0 l0 -45 -60 0 -60 0 0 -135 0 -135 -45 0 -45 0 0 135 0 135
-55 0 -55 0 0 45 0 45 160 0 160 0 0 -45z m640 23 c63 -32 85 -75 85 -163 0
-84 -22 -127 -77 -156 -30 -15 -59 -19 -148 -19 l-110 0 0 180 0 180 103 0
c87 0 110 -4 147 -22z m578 -115 l3 -133 89 0 90 0 0 -45 0 -45 -140 0 -140 0
0 181 0 180 48 -3 47 -3 3 -132z m320 0 l3 -133 89 0 90 0 0 -45 0 -45 -140 0
-140 0 0 181 0 180 48 -3 47 -3 3 -132z m320 7 c3 -136 5 -140 62 -140 61 0
64 6 68 144 l4 126 44 0 44 0 0 -125 c0 -144 -11 -184 -62 -215 -49 -29 -153
-28 -199 3 -47 31 -58 72 -58 215 l-1 123 48 -3 47 -3 3 -125z m342 -5 l0
-135 95 0 95 0 0 -45 0 -45 -140 0 -140 0 0 180 0 180 45 0 45 0 0 -135z m320
0 l0 -135 95 0 95 0 0 -45 0 -45 -140 0 -140 0 0 180 0 180 45 0 45 0 0 -135z"/>
<path d="M4234 3258 c-4 -7 -8 -41 -8 -76 0 -72 15 -92 66 -92 44 0 68 31 68
91 0 75 -11 89 -70 89 -27 0 -52 -5 -56 -12z"/>
<path d="M4974 3258 c-4 -7 -8 -41 -8 -76 0 -72 15 -92 66 -92 44 0 68 31 68
91 0 75 -11 89 -70 89 -27 0 -52 -5 -56 -12z"/>
<path d="M4590 3181 l0 -91 55 0 c73 0 95 21 95 88 0 62 -18 79 -93 88 l-57 7
0 -92z"/>
</g>
</svg>
